<svg version="1.1" id="Layer_1" xmlns="http://www.w3.org/2000/svg" xmlns:xlink="http://www.w3.org/1999/xlink" x="0px" y="0px"
	 width="100%" viewBox="0 0 512 163" enable-background="new 0 0 512 163" xml:space="preserve">
<path fill="#000000" opacity="1.000000" stroke="none" 
	d="
M1.000000,89.000000 
	C1.000000,59.717674 1.000000,30.435345 1.000000,1.000000 
	C55.354137,1.000000 109.708412,1.000000 164.865051,1.263050 
	C165.045578,2.005531 164.491150,2.645305 163.791443,2.939580 
	C156.818085,5.872338 151.705933,12.466146 152.106644,19.337751 
	C152.494293,25.985878 156.205124,30.432005 162.505280,33.206829 
	C174.339890,38.419235 185.658920,36.865498 195.996338,30.237438 
	C205.973511,23.840370 205.602264,10.919335 196.118088,3.463838 
	C195.488708,2.969085 195.361023,1.836118 195.000000,1.000001 
	C251.687561,1.000000 308.375122,1.000000 365.872620,1.281962 
	C364.800629,2.373407 362.987946,3.467633 361.025299,3.945010 
	C350.265564,6.562096 348.293121,22.134514 353.738312,28.346724 
	C363.318939,39.276802 388.983032,38.546593 398.268158,26.165621 
	C404.208099,18.245214 402.829651,6.557687 392.761444,3.248285 
	C392.009216,3.001035 391.579590,1.772413 391.000000,1.000002 
	C431.577057,1.000000 472.154144,1.000000 513.000000,1.000000 
	C513.000000,26.353594 513.000000,51.708138 512.579712,77.534966 
	C508.850311,78.423798 505.541168,78.840347 503.108551,79.146561 
	C502.702850,72.443230 502.730652,66.564217 501.921936,60.802612 
	C499.978485,46.956947 492.768280,36.869194 479.872833,30.889051 
	C469.226410,25.951893 458.170532,25.497303 446.635071,25.785587 
	C433.256866,26.119923 420.976868,29.508305 408.939117,34.864307 
	C405.756836,36.280216 404.700378,38.583420 404.036438,41.471268 
	C403.165955,45.257576 402.407806,49.069561 401.567322,52.862968 
	C400.322266,58.482216 399.047302,64.094841 397.835541,69.485641 
	C406.955139,67.032471 415.426331,64.342514 424.083313,62.549915 
	C431.543854,61.005058 439.127350,61.512230 446.247864,64.742470 
	C451.539612,67.143082 455.066010,72.795364 454.300934,78.045914 
	C450.122101,72.031937 444.195068,69.339928 437.647705,68.377281 
	C432.916809,67.681702 428.009583,67.799477 423.207764,68.055977 
	C414.434357,68.524666 406.162659,70.764626 399.553894,76.975395 
	C395.467072,80.816116 391.543488,84.644020 384.728455,82.336456 
	C387.785217,68.665649 390.841644,54.996506 393.973633,40.989441 
	C378.682404,40.989441 363.862915,41.064362 349.045471,40.925678 
	C346.112823,40.898228 345.489716,42.472767 344.996552,44.716236 
	C343.118835,53.257820 341.156952,61.780926 339.285095,70.323776 
	C338.092438,75.767059 337.002930,81.232956 335.855652,86.743958 
	C339.995422,86.407295 343.362915,86.133430 347.143127,85.826004 
	C343.958221,100.074989 341.061035,113.675964 337.828888,127.196869 
	C336.447601,132.975159 333.138641,135.099457 327.009521,134.941071 
	C324.802551,134.884033 322.606110,134.417847 320.299896,134.125061 
	C318.825836,140.696243 317.627502,147.072739 315.915955,153.308380 
	C314.753845,157.542221 313.730743,161.282608 319.289917,162.996506 
	C319.295807,162.998337 319.101044,163.651230 319.000000,164.000000 
	C213.121506,164.000000 107.243019,164.000000 1.000000,164.000000 
	C1.000000,142.980515 1.000000,121.958916 1.420325,100.467674 
	C5.036303,99.561417 8.231955,99.124794 11.669735,98.655090 
	C9.525591,108.742577 7.531138,118.125809 5.432905,127.997299 
	C21.117348,127.997299 35.595703,128.055038 50.071613,127.893349 
	C51.297932,127.879639 53.327450,126.610420 53.596729,125.566628 
	C55.906681,116.612625 57.997208,107.597221 59.900101,98.546921 
	C60.292858,96.678932 60.231892,94.413788 56.684158,95.573418 
	C54.458771,96.300827 51.802128,95.708885 49.144642,95.708885 
	C49.782169,92.610397 50.189774,89.574623 51.047104,86.671661 
	C53.140739,79.582489 53.148781,71.210091 60.093609,66.732391 
	C63.188690,64.736839 67.833031,64.139198 71.583321,64.569778 
	C73.593697,64.800598 76.144318,68.326225 76.746323,70.782814 
	C77.486061,73.801399 76.668167,77.293365 76.126007,80.513786 
	C75.223099,85.877098 74.003975,91.187172 72.907730,96.570137 
	C76.784424,96.570137 80.141190,96.570137 84.123886,96.570137 
	C81.828316,106.858368 79.505386,117.269241 77.111366,127.998695 
	C92.418053,127.998695 107.238251,127.938477 122.057159,128.050110 
	C124.979828,128.072128 125.528275,126.430977 126.018478,124.177597 
	C128.254486,113.899040 130.575165,103.638901 132.957657,92.958618 
	C129.265320,92.958618 125.812408,92.958618 122.347580,92.958618 
	C122.192284,92.129921 122.019981,91.664001 122.039619,91.206314 
	C122.067360,90.559631 122.206467,89.912140 122.350410,89.276863 
	C125.313637,76.199196 128.947556,63.159328 125.967758,49.570297 
	C124.244049,41.709492 121.620331,34.462215 114.318634,29.581074 
	C105.817802,23.898317 96.488251,24.280598 87.281281,25.453810 
	C75.770279,26.920612 68.365791,35.024101 61.466507,43.497978 
	C61.161827,43.180805 61.039062,43.054790 60.951927,42.508881 
	C61.695808,37.861301 62.404064,33.633625 63.145267,29.209286 
	C47.030823,29.209286 31.613569,29.209286 16.351496,29.209286 
	C15.856658,30.851713 15.344339,32.235310 15.024436,33.662048 
	C10.990469,51.653137 6.998874,69.653778 2.904190,87.630974 
	C2.774071,88.202248 1.656983,88.548729 1.000000,89.000000 
M271.000336,31.455963 
	C266.634705,35.583000 262.269104,39.710037 257.654999,44.071999 
	C258.799133,39.118786 259.920441,34.264515 261.093628,29.185482 
	C244.996628,29.185482 229.226471,29.185482 213.488754,29.185482 
	C208.769226,50.081844 204.092209,70.789940 199.255356,92.205818 
	C204.028351,91.923706 207.382141,91.725471 210.725296,91.525528 
	C208.049072,103.525642 205.372864,115.525749 202.623825,127.852402 
	C219.197815,127.852402 234.814468,127.852402 250.618149,127.852402 
	C253.558304,114.701843 256.475586,101.653633 259.525269,88.013145 
	C255.260864,88.013145 251.870865,88.013145 248.522720,88.013145 
	C249.145187,84.548477 249.416779,81.411469 250.320084,78.468346 
	C251.215164,75.552101 252.571259,72.735390 254.038544,70.045998 
	C256.618408,65.317352 264.100342,62.465729 269.093964,64.082405 
	C273.229736,65.421356 275.254578,70.802116 274.086975,76.898666 
	C273.341034,80.793808 272.829071,84.733765 272.144318,89.085144 
	C275.933075,89.085144 279.379425,89.085144 283.148285,89.085144 
	C280.241852,102.195404 277.433319,114.864189 274.522339,127.994873 
	C290.286102,127.994873 304.924591,128.054138 319.560333,127.880753 
	C320.713257,127.867096 322.612091,126.417793 322.873169,125.326752 
	C326.041473,112.086639 328.967194,98.788490 332.080933,84.949959 
	C328.281189,84.949959 324.712830,84.949959 322.143860,84.949959 
	C322.781158,73.849632 324.140747,63.217197 323.789734,52.641541 
	C323.433350,41.905674 318.922821,32.567238 308.394440,27.917170 
	C295.706940,22.313478 283.338806,23.940990 271.000336,31.455963 
M146.045456,48.709091 
	C142.763657,63.679085 139.481842,78.649078 136.102066,94.066010 
	C139.827835,94.066010 143.272293,94.066010 147.312622,94.066010 
	C144.744156,105.544579 142.288452,116.519180 139.765274,127.795319 
	C156.100739,127.795319 171.865311,127.795319 187.694748,127.795319 
	C190.572769,115.247070 193.413712,102.860474 196.381134,89.922363 
	C192.110611,89.922363 188.671936,89.922363 184.992661,89.922363 
	C188.724869,73.452492 192.359390,57.413754 196.081299,40.989426 
	C182.091110,40.989426 168.620865,40.989403 155.150620,40.989429 
	C147.711227,40.989445 147.711227,40.989483 146.045456,48.709091 
z"/>
<path fill="#39C1CB" opacity="1.000000" stroke="none" 
	d="
M319.468658,164.000000 
	C319.101044,163.651230 319.295807,162.998337 319.289917,162.996506 
	C313.730743,161.282608 314.753845,157.542221 315.915955,153.308380 
	C317.627502,147.072739 318.825836,140.696243 320.299896,134.125061 
	C322.606110,134.417847 324.802551,134.884033 327.009521,134.941071 
	C333.138641,135.099457 336.447601,132.975159 337.828888,127.196869 
	C341.061035,113.675964 343.958221,100.074989 347.143127,85.826004 
	C343.362915,86.133430 339.995422,86.407295 335.855652,86.743958 
	C337.002930,81.232956 338.092438,75.767059 339.285095,70.323776 
	C341.156952,61.780926 343.118835,53.257820 344.996552,44.716236 
	C345.489716,42.472767 346.112823,40.898228 349.045471,40.925678 
	C363.862915,41.064362 378.682404,40.989441 393.973633,40.989441 
	C390.841644,54.996506 387.785217,68.665649 384.728455,82.336456 
	C391.543488,84.644020 395.467072,80.816116 399.553894,76.975395 
	C406.162659,70.764626 414.434357,68.524666 423.207764,68.055977 
	C428.009583,67.799477 432.916809,67.681702 437.647705,68.377281 
	C444.195068,69.339928 450.122101,72.031937 454.300934,78.045914 
	C455.066010,72.795364 451.539612,67.143082 446.247864,64.742470 
	C439.127350,61.512230 431.543854,61.005058 424.083313,62.549915 
	C415.426331,64.342514 406.955139,67.032471 397.835541,69.485641 
	C399.047302,64.094841 400.322266,58.482216 401.567322,52.862968 
	C402.407806,49.069561 403.165955,45.257576 404.036438,41.471268 
	C404.700378,38.583420 405.756836,36.280216 408.939117,34.864307 
	C420.976868,29.508305 433.256866,26.119923 446.635071,25.785587 
	C458.170532,25.497303 469.226410,25.951893 479.872833,30.889051 
	C492.768280,36.869194 499.978485,46.956947 501.921936,60.802612 
	C502.730652,66.564217 502.702850,72.443230 503.108551,79.146561 
	C505.541168,78.840347 508.850311,78.423798 512.579712,78.003624 
	C513.000000,81.361290 513.000000,84.722572 512.688049,88.202087 
	C511.920898,89.144943 511.233398,89.920120 511.045715,90.801712 
	C508.645233,102.077682 506.400024,113.387840 503.855652,124.630539 
	C503.561005,125.932587 501.720551,127.832359 500.572357,127.849831 
	C486.122986,128.069717 471.669128,127.994171 456.893555,127.994171 
	C457.643097,124.543007 458.290802,121.560905 458.938477,118.578812 
	C458.496338,118.274048 458.054169,117.969284 457.612000,117.664520 
	C456.893250,118.788689 456.353912,120.094360 455.428375,121.009308 
	C444.639130,131.674576 431.652191,134.069077 417.583801,129.870026 
	C407.611877,126.893669 397.681641,119.713783 399.088470,104.572922 
	C399.698608,98.006477 401.271637,91.529488 402.385925,85.134529 
	C400.547699,85.134529 398.072266,85.134529 395.385437,85.134529 
	C392.241119,99.282906 389.048462,113.333862 386.007019,127.417473 
	C382.512878,143.597229 375.501556,156.902344 358.385193,162.278595 
	C358.104279,162.366837 358.121765,163.405075 358.000000,164.000000 
	C345.312439,164.000000 332.624878,164.000000 319.468658,164.000000 
M447.872192,107.993011 
	C451.516632,107.339142 455.593658,107.471474 458.667419,105.780350 
	C461.085999,104.449715 463.236755,101.048508 463.753998,98.243851 
	C464.412018,94.676025 461.072174,91.991768 457.928741,91.669258 
	C453.910370,91.256981 449.578522,91.834915 445.672699,92.979210 
	C441.867371,94.094070 439.368195,97.033646 439.990295,101.598228 
	C440.552917,105.726143 443.502136,107.144028 447.872192,107.993011 
z"/>
<path fill="#39C1CB" opacity="1.000000" stroke="none" 
	d="
M61.648430,43.689144 
	C68.365791,35.024101 75.770279,26.920612 87.281281,25.453810 
	C96.488251,24.280598 105.817802,23.898317 114.318634,29.581074 
	C121.620331,34.462215 124.244049,41.709492 125.967758,49.570297 
	C128.947556,63.159328 125.313637,76.199196 122.350410,89.276863 
	C122.206467,89.912140 122.067360,90.559631 122.039619,91.206314 
	C122.019981,91.664001 122.192284,92.129921 122.347580,92.958618 
	C125.812408,92.958618 129.265320,92.958618 132.957657,92.958618 
	C130.575165,103.638901 128.254486,113.899040 126.018478,124.177597 
	C125.528275,126.430977 124.979828,128.072128 122.057159,128.050110 
	C107.238251,127.938477 92.418053,127.998695 77.111366,127.998695 
	C79.505386,117.269241 81.828316,106.858368 84.123886,96.570137 
	C80.141190,96.570137 76.784424,96.570137 72.907730,96.570137 
	C74.003975,91.187172 75.223099,85.877098 76.126007,80.513786 
	C76.668167,77.293365 77.486061,73.801399 76.746323,70.782814 
	C76.144318,68.326225 73.593697,64.800598 71.583321,64.569778 
	C67.833031,64.139198 63.188690,64.736839 60.093609,66.732391 
	C53.148781,71.210091 53.140739,79.582489 51.047104,86.671661 
	C50.189774,89.574623 49.782169,92.610397 49.144642,95.708885 
	C51.802128,95.708885 54.458771,96.300827 56.684158,95.573418 
	C60.231892,94.413788 60.292858,96.678932 59.900101,98.546921 
	C57.997208,107.597221 55.906681,116.612625 53.596729,125.566628 
	C53.327450,126.610420 51.297932,127.879639 50.071613,127.893349 
	C35.595703,128.055038 21.117348,127.997299 5.432905,127.997299 
	C7.531138,118.125809 9.525591,108.742577 11.669735,98.655090 
	C8.231955,99.124794 5.036303,99.561417 1.420325,99.999016 
	C1.000000,96.638710 1.000000,93.277428 1.000000,89.458069 
	C1.656983,88.548729 2.774071,88.202248 2.904190,87.630974 
	C6.998874,69.653778 10.990469,51.653137 15.024436,33.662048 
	C15.344339,32.235310 15.856658,30.851713 16.351496,29.209286 
	C31.613569,29.209286 47.030823,29.209286 63.145267,29.209286 
	C62.404064,33.633625 61.695808,37.861301 60.659904,42.646412 
	C60.284924,43.978104 60.237591,44.752361 60.147209,46.230827 
	C60.911190,44.937347 61.279812,44.313244 61.648430,43.689144 
z"/>
<path fill="#000000" opacity="1.000000" stroke="none" 
	d="
M358.468658,164.000000 
	C358.121765,163.405075 358.104279,162.366837 358.385193,162.278595 
	C375.501556,156.902344 382.512878,143.597229 386.007019,127.417473 
	C389.048462,113.333862 392.241119,99.282906 395.385437,85.134529 
	C398.072266,85.134529 400.547699,85.134529 402.385925,85.134529 
	C401.271637,91.529488 399.698608,98.006477 399.088470,104.572922 
	C397.681641,119.713783 407.611877,126.893669 417.583801,129.870026 
	C431.652191,134.069077 444.639130,131.674576 455.428375,121.009308 
	C456.353912,120.094360 456.893250,118.788689 457.612000,117.664520 
	C458.054169,117.969284 458.496338,118.274048 458.938477,118.578812 
	C458.290802,121.560905 457.643097,124.543007 456.893555,127.994171 
	C471.669128,127.994171 486.122986,128.069717 500.572357,127.849831 
	C501.720551,127.832359 503.561005,125.932587 503.855652,124.630539 
	C506.400024,113.387840 508.645233,102.077682 511.045715,90.801712 
	C511.233398,89.920120 511.920898,89.144943 512.688049,88.660156 
	C513.000000,113.952362 513.000000,138.904724 513.000000,164.000000 
	C461.645844,164.000000 410.291595,164.000000 358.468658,164.000000 
z"/>
<path fill="#39C1CB" opacity="1.000000" stroke="none" 
	d="
M194.531342,1.000001 
	C195.361023,1.836118 195.488708,2.969085 196.118088,3.463838 
	C205.602264,10.919335 205.973511,23.840370 195.996338,30.237438 
	C185.658920,36.865498 174.339890,38.419235 162.505280,33.206829 
	C156.205124,30.432005 152.494293,25.985878 152.106644,19.337751 
	C151.705933,12.466146 156.818085,5.872338 163.791443,2.939580 
	C164.491150,2.645305 165.045578,2.005531 165.333710,1.263050 
	C174.687561,1.000000 184.375122,1.000000 194.531342,1.000001 
z"/>
<path fill="#39C1CB" opacity="1.000000" stroke="none" 
	d="
M390.531372,1.000002 
	C391.579590,1.772413 392.009216,3.001035 392.761444,3.248285 
	C402.829651,6.557687 404.208099,18.245214 398.268158,26.165621 
	C388.983032,38.546593 363.318939,39.276802 353.738312,28.346724 
	C348.293121,22.134514 350.265564,6.562096 361.025299,3.945010 
	C362.987946,3.467633 364.800629,2.373407 366.341248,1.281962 
	C374.020905,1.000000 382.041809,1.000000 390.531372,1.000002 
z"/>
<path fill="#39C1CB" opacity="1.000000" stroke="none" 
	d="
M271.274780,31.202484 
	C283.338806,23.940990 295.706940,22.313478 308.394440,27.917170 
	C318.922821,32.567238 323.433350,41.905674 323.789734,52.641541 
	C324.140747,63.217197 322.781158,73.849632 322.143860,84.949959 
	C324.712830,84.949959 328.281189,84.949959 332.080933,84.949959 
	C328.967194,98.788490 326.041473,112.086639 322.873169,125.326752 
	C322.612091,126.417793 320.713257,127.867096 319.560333,127.880753 
	C304.924591,128.054138 290.286102,127.994873 274.522339,127.994873 
	C277.433319,114.864189 280.241852,102.195404 283.148285,89.085144 
	C279.379425,89.085144 275.933075,89.085144 272.144318,89.085144 
	C272.829071,84.733765 273.341034,80.793808 274.086975,76.898666 
	C275.254578,70.802116 273.229736,65.421356 269.093964,64.082405 
	C264.100342,62.465729 256.618408,65.317352 254.038544,70.045998 
	C252.571259,72.735390 251.215164,75.552101 250.320084,78.468346 
	C249.416779,81.411469 249.145187,84.548477 248.522720,88.013145 
	C251.870865,88.013145 255.260864,88.013145 259.525269,88.013145 
	C256.475586,101.653633 253.558304,114.701843 250.618149,127.852402 
	C234.814468,127.852402 219.197815,127.852402 202.623825,127.852402 
	C205.372864,115.525749 208.049072,103.525642 210.730621,91.526382 
	C207.382141,91.725471 204.028351,91.923706 199.255356,92.205818 
	C204.092209,70.789940 208.769226,50.081844 213.488754,29.185482 
	C229.226471,29.185482 244.996628,29.185482 261.093628,29.185482 
	C259.920441,34.264515 258.799133,39.118786 257.654999,44.071999 
	C262.269104,39.710037 266.634705,35.583000 271.274780,31.202484 
z"/>
<path fill="#39C1CB" opacity="1.000000" stroke="none" 
	d="
M146.264771,48.337997 
	C147.711227,40.989483 147.711227,40.989445 155.150620,40.989429 
	C168.620865,40.989403 182.091110,40.989426 196.081299,40.989426 
	C192.359390,57.413754 188.724869,73.452492 184.992661,89.922363 
	C188.671936,89.922363 192.110611,89.922363 196.381134,89.922363 
	C193.413712,102.860474 190.572769,115.247070 187.694748,127.795319 
	C171.865311,127.795319 156.100739,127.795319 139.765274,127.795319 
	C142.288452,116.519180 144.744156,105.544579 147.312622,94.066010 
	C143.272293,94.066010 139.827835,94.066010 136.102066,94.066010 
	C139.481842,78.649078 142.763657,63.679085 146.264771,48.337997 
z"/>
<path fill="#000000" opacity="1.000000" stroke="none" 
	d="
M447.441650,107.991104 
	C443.502136,107.144028 440.552917,105.726143 439.990295,101.598228 
	C439.368195,97.033646 441.867371,94.094070 445.672699,92.979210 
	C449.578522,91.834915 453.910370,91.256981 457.928741,91.669258 
	C461.072174,91.991768 464.412018,94.676025 463.753998,98.243851 
	C463.236755,101.048508 461.085999,104.449715 458.667419,105.780350 
	C455.593658,107.471474 451.516632,107.339142 447.441650,107.991104 
z"/>
<path fill="#000000" opacity="1.000000" stroke="none" 
	d="
M61.466507,43.497978 
	C61.279812,44.313244 60.911190,44.937347 60.147209,46.230827 
	C60.237591,44.752361 60.284924,43.978104 60.624275,43.066311 
	C61.039062,43.054790 61.161827,43.180805 61.466507,43.497978 
z"/>
</svg>